<?xml version="1.0" encoding="utf-8"?>
<!-- Generator: Adobe Illustrator 16.0.0, SVG Export Plug-In . SVG Version: 6.00 Build 0)  -->
<!DOCTYPE svg PUBLIC "-//W3C//DTD SVG 1.1//EN" "http://www.w3.org/Graphics/SVG/1.1/DTD/svg11.dtd">
<svg version="1.1" id="Layer_1" xmlns="http://www.w3.org/2000/svg" xmlns:xlink="http://www.w3.org/1999/xlink" x="0px" y="0px"
	 width="1000px" height="1000px" viewBox="0 0 1000 1000" enable-background="new 0 0 1000 1000" xml:space="preserve">
<path display="none" fill="none" stroke="#000000" stroke-miterlimit="10" d="M632.244,230.646"/>
<path display="none" fill="none" stroke="#000000" stroke-miterlimit="10" d="M367.755,771.857"/>
<path display="none" fill="none" stroke="#000000" stroke-miterlimit="10" d="M367.755,771.857"/>
<path display="none" fill="none" stroke="#000000" stroke-miterlimit="10" d="M367.755,771.854"/>
<path display="none" fill="none" stroke="#000000" stroke-miterlimit="10" d="M367.755,500"/>
<path display="none" fill="none" stroke="#000000" stroke-miterlimit="10" d="M455,526.17"/>
<path display="none" fill="none" stroke="#000000" stroke-miterlimit="10" d="M455,799.151"/>
<linearGradient id="SVGID_1_" gradientUnits="userSpaceOnUse" x1="366.5664" y1="417.0166" x2="631.0586" y2="417.0166">
	<stop  offset="0" style="stop-color:#34428A"/>
	<stop  offset="1" style="stop-color:#7B4E9F"/>
</linearGradient>
<linearGradient id="SVGID_2_" gradientUnits="userSpaceOnUse" x1="366.0664" y1="417.0166" x2="631.5586" y2="417.0166">
	<stop  offset="0" style="stop-color:#34428A"/>
	<stop  offset="1" style="stop-color:#7B4E9F"/>
</linearGradient>
<path fill="url(#SVGID_1_)" stroke="url(#SVGID_2_)" stroke-miterlimit="10" d="M366.568,354.054v61.288l-0.002,1.346l0.002-1.346
	c0-4.73,0.434-9.619,1.115-14.301c0.502-3.443,1.271-6.91,2.781-10.066c1.039-2.168,2.441-4.184,4.246-5.785
	c1.451-1.287,3.154-2.273,5.035-2.775c1.855-0.494,3.777-0.494,5.682-0.428c5.131,0.182,10.324,3.018,14.453,5.867
	c0.346,0.238,0.686,0.48,1.018,0.736l52.914,53.384l128.515,128.052l24.164-24.353c9.084-9.232,14.811-20.661,18.418-31.338
	c6.015-17.796,6.148-33.509,6.149-33.509c0,0,0-62.734,0-62.733l-0.001,1.346c0,4.73-0.435,9.619-1.116,14.301
	c-0.501,3.443-1.271,6.91-2.781,10.066c-1.038,2.168-2.44,4.184-4.245,5.785c-1.451,1.287-3.155,2.273-5.036,2.775
	c-1.854,0.494-3.777,0.494-5.682,0.428c-5.13-0.182-10.323-3.018-14.453-5.867c-0.345-0.238-0.686-0.48-1.017-0.736
	c0,0-52.914-53.383-52.914-53.384L416.147,264.008l-24.583,24.583c-9.243,9.321-15.068,20.857-18.74,31.636
	C366.705,338.192,366.568,354.054,366.568,354.054z"/>
<linearGradient id="SVGID_3_" gradientUnits="userSpaceOnUse" x1="98.812" y1="418.1865" x2="498.813" y2="418.1865">
	<stop  offset="0" style="stop-color:#34428A"/>
	<stop  offset="1" style="stop-color:#7B4E9F"/>
</linearGradient>
<linearGradient id="SVGID_4_" gradientUnits="userSpaceOnUse" x1="98.312" y1="418.2158" x2="499.313" y2="418.2158">
	<stop  offset="0" style="stop-color:#34428A"/>
	<stop  offset="1" style="stop-color:#7B4E9F"/>
</linearGradient>
<path fill="url(#SVGID_3_)" stroke="url(#SVGID_4_)" stroke-miterlimit="10" d="M366.566,416.686l0.002-1.345
	c0-4.73,0.434-9.619,1.115-14.301c0.502-3.443,1.271-6.91,2.781-10.066c1.039-2.168,2.441-4.184,4.246-5.785
	c1.451-1.287,3.154-2.273,5.035-2.775c1.855-0.494,3.777-0.494,5.682-0.428c5.131,0.182,10.324,3.018,14.453,5.867
	c0.346,0.238,0.686,0.48,1.018,0.736c0,0,52.914,53.384,52.914,53.385v274.112v100.849c-199.731-22.361-355-191.796-355-397.497
	c0-108.444,43.155-206.809,113.228-278.857C284.714,65.856,386.343,19.438,498.813,19.438v100
	c-165.686,0-300.001,134.314-300.001,300c0,118.224,68.385,220.476,167.756,269.355l-0.002-0.005V416.688"/>
<linearGradient id="SVGID_5_" gradientUnits="userSpaceOnUse" x1="497.625" y1="982.1543" x2="497.625" y2="982.1543">
	<stop  offset="0" style="stop-color:#34428A"/>
	<stop  offset="1" style="stop-color:#7B4E9F"/>
</linearGradient>
<linearGradient id="SVGID_6_" gradientUnits="userSpaceOnUse" x1="497.625" y1="982.1543" x2="497.625" y2="982.1543">
	<stop  offset="0" style="stop-color:#34428A"/>
	<stop  offset="1" style="stop-color:#7B4E9F"/>
</linearGradient>
<path fill="url(#SVGID_5_)" stroke="url(#SVGID_6_)" stroke-miterlimit="10" d="M497.625,982.154"/>
<linearGradient id="SVGID_7_" gradientUnits="userSpaceOnUse" x1="498.8135" y1="499.4063" x2="898.8135" y2="499.4063">
	<stop  offset="0" style="stop-color:#34428A"/>
	<stop  offset="1" style="stop-color:#7B4E9F"/>
</linearGradient>
<linearGradient id="SVGID_8_" gradientUnits="userSpaceOnUse" x1="498.3135" y1="500.2368" x2="899.3135" y2="500.2368">
	<stop  offset="0" style="stop-color:#34428A"/>
	<stop  offset="1" style="stop-color:#7B4E9F"/>
</linearGradient>
<path fill="url(#SVGID_7_)" stroke="url(#SVGID_8_)" stroke-miterlimit="10" d="M785.625,694.154c0,0-17.631,18.313-46.792,42.347
	c-29.759,24.527-104.145,77.478-140.499,113.832c-71.426,71.425-99.521,130.634-99.521,130.634V815.343v-100
	c165.686,0,300-134.314,300-300c0-118.223-68.385-220.475-167.756-269.355l0.001,0.005v272.1c0-0.001-0.001,1.345-0.001,1.345
	c0,4.73-0.435,9.619-1.116,14.301c-0.501,3.443-1.271,6.91-2.781,10.066c-1.038,2.168-2.44,4.184-4.245,5.785
	c-1.451,1.287-3.155,2.273-5.036,2.775c-1.854,0.494-3.777,0.494-5.682,0.428c-5.13-0.182-10.323-3.018-14.453-5.867
	c-0.345-0.238-0.686-0.48-1.017-0.736c0,0-52.914-53.384-52.914-53.384v0.001V118.695V17.846c199.73,22.361,355,191.796,355,397.497
	c0,112.496-46.44,214.146-121.194,286.823"/>
</svg>
